<?xml version="1.0" encoding="UTF-8" standalone="no"?>
<!-- Uploaded to: SVG Repo, www.svgrepo.com, Generator: SVG Repo Mixer Tools -->

<svg
   fill="#000000"
   version="1.1"
   id="Layer_1"
   width="800px"
   height="800px"
   viewBox="0 0 92 92"
   enable-background="new 0 0 92 92"
   xml:space="preserve"
   sodipodi:docname="web-svgrepo-com.svg"
   inkscape:version="1.4.4 (dcaf3e7d9e, 2026-05-05)"
   xmlns:inkscape="http://www.inkscape.org/namespaces/inkscape"
   xmlns:sodipodi="http://sodipodi.sourceforge.net/DTD/sodipodi-0.dtd"
   xmlns="http://www.w3.org/2000/svg"
   xmlns:svg="http://www.w3.org/2000/svg"><defs
   id="defs1"><clipPath
     id="clip0_1_1828"><rect
       width="24"
       height="24"
       fill="white"
       id="rect1" /></clipPath></defs><sodipodi:namedview
   id="namedview1"
   pagecolor="#ffffff"
   bordercolor="#000000"
   borderopacity="0.25"
   inkscape:showpageshadow="2"
   inkscape:pageopacity="0.0"
   inkscape:pagecheckerboard="0"
   inkscape:deskcolor="#d1d1d1"
   inkscape:zoom="0.38761208"
   inkscape:cx="416.65369"
   inkscape:cy="237.35071"
   inkscape:window-width="1761"
   inkscape:window-height="1202"
   inkscape:window-x="0"
   inkscape:window-y="0"
   inkscape:window-maximized="0"
   inkscape:current-layer="Layer_1" />

<path
   id="XMLID_1666_"
   mask="none"
   d="M 46,0 C 20.6,0 0,20.6 0,46 c 0,25.4 20.6,46 46,46 5.577546,0 10.923551,-0.993228 15.870898,-2.812559 -0.604874,-0.803565 -1.117592,-1.689399 -1.630664,-2.541005 -0.665288,-1.234672 -1.436238,-2.419175 -2.103466,-3.642491 -2.33756,1.099933 -4.606217,2.69876 -7.154483,3.458985 -1.447174,0.751242 -3.506307,0.215472 -4.156621,-1.348106 -0.741289,-2.930315 0.01759,-5.954718 0.414629,-8.880381 -0.110756,-0.257729 0.327903,-0.847856 0.03122,-0.878896 -1.410877,-0.291737 -2.85307,-0.481534 -4.271621,-0.762998 v 9.307363 c -0.2,0 -0.399883,-0.09995 -0.699883,-0.09995 -2.7,-2.7 -9.699922,-10.49999 -13.499922,-22.09999 4.2,0.3 8.999805,0.49998 14.199805,0.49998 v 1.329912 c 0.320463,-0.301956 0.637674,-0.605111 0.947402,-0.912588 -1.793134,-1.788496 -3.661125,-3.529811 -5.121318,-5.610966 -0.204344,-0.274518 -0.355319,-0.585308 -0.451914,-0.912364 -4.016646,-0.117798 -7.754251,-0.302817 -11.174092,-0.593867 -0.5,-2.9 -0.90001,-6.100078 -0.90001,-9.500078 0,-3.4 0.399961,-6.600029 0.999961,-9.600029 4.6,-0.3 9.799971,-0.599932 15.699971,-0.599932 v 15.863486 c 1.428745,-0.30118 2.900962,-0.451118 4.336084,-0.632275 -0.168228,-2.467163 -0.625852,-4.928464 -0.450791,-7.407842 -0.152799,-1.501328 0.701129,-3.137199 2.114921,-3.686289 v -4.13708 c 5.096484,0.08787 9.806741,0.252969 13.995411,0.495264 0.547833,-0.430795 1.173425,-0.745563 1.912773,-0.859805 0.526834,-0.03652 1.056406,0.09795 1.521055,0.343428 2.468108,1.735678 3.598805,4.671715 5.043379,7.205469 0.04486,-0.01551 0.08972,-0.03105 0.134541,-0.04672 -0.124872,-2.033788 -0.370867,-4.053777 -0.707295,-5.937774 5.9,0.6 10.100058,1.200118 12.300058,1.600118 0.5,2.4 0.800059,4.89998 0.800059,7.39998 0,1.741339 -0.145747,3.482728 -0.369258,5.190273 1.879721,0.435659 3.774742,0.868038 5.54291,1.663233 0.935524,0.400809 1.678384,1.268035 1.926475,2.243398 C 91.690425,52.156137 92,49.114198 92,46 92,20.6 71.4,0 46,0 Z M 42.999893,8.1000879 V 29.800049 c -5.2,0.1 -9.899854,0.19998 -14.099854,0.49998 3.8,-11.4 10.799971,-19.39999 13.399971,-22.0999899 0.3,0 0.499883,-0.099951 0.699883,-0.099951 z m 6.000214,0 c 0.2,0 0.399932,0.099951 0.599932,0.099951 2.7,2.6999999 9.599922,10.6999899 13.499922,22.0999899 -4.2,-0.3 -8.899854,-0.49998 -14.099854,-0.49998 z M 32.600029,10.400088 c -3.6,4.8 -7.700009,11.699971 -10.100009,20.299971 -5,0.4 -9.00003,0.99999 -11.90003,1.39999 3.9,-9.9 12.000039,-17.899961 22.000039,-21.699961 z m 26.799942,0 c 10.1,3.8 18.100039,11.799912 22.000039,21.799912 -2.8,-0.4 -6.80003,-0.89999 -11.90003,-1.39999 -2.4,-8.6 -6.600009,-15.499922 -10.100009,-20.399922 z M 21.000078,36.999902 c -0.5,2.9 -0.800058,5.900049 -0.800058,9.100049 0,3.2 0.299882,6.200098 0.699882,9.000098 -5.8,-0.6 -10.099834,-1.200117 -12.2998336,-1.600117 -0.3,-2.5 -0.6001563,-4.999932 -0.6001563,-7.499932 0,-2.5 0.3001074,-4.99998 0.7001074,-7.39998 2.2000005,-0.4 6.4000585,-1.000118 12.3000585,-1.600118 z m 69.453262,20.86958 c -1.209673,2.154886 -3.000979,3.944986 -4.62336,5.792676 0.562177,0.700832 1.150409,1.382535 1.734209,2.067529 1.190967,-2.50383 2.162306,-5.132208 2.889151,-7.860205 z M 10.59999,59.8 c 2.8,0.4 6.800078,0.89999 11.800078,1.39999 2.4,8.6 6.399834,15.499971 9.999834,20.299971 C 22.399902,77.599961 14.49999,69.7 10.59999,59.8 Z m 60.339512,23.496836 c -0.392814,0.685042 -0.767249,1.38298 -1.14708,2.077637 0.752281,-0.455643 1.49047,-0.932232 2.21375,-1.428965 -0.356459,-0.215792 -0.711532,-0.433088 -1.06667,-0.648672 z"
   sodipodi:nodetypes="ssscccccccccccccccccsccccccccccccccscccsscccccccccccccccccccsccscccccccccccccc" /><path
   fill="#ff4081"
   iconColor="Mathematica"
   d="m 83.751021,63.626227 c 7.95077,-9.261957 8.48061,-8.798105 -3.11489,-11.515878 1.45091,-12.335411 0.9802,-11.128715 -9.93607,-7.164908 -5.84154,-10.952062 -5.4179,-10.1167 -11.75841,-0.234315 -12.10802,-5.715452 -10.9768,-4.823939 -9.91297,7.634806 -12.568718,1.706366 -11.049415,1.829901 -2.85783,10.292375 -9.975698,9.616227 -10.367918,9.02953 2.97043,11.408544 -2.03271,13.750961 -2.31796,13.114621 9.49506,6.822968 6.64382,10.232053 4.74973,12.497373 11.70609,0.222762 11.35115,6.793611 10.31931,5.845561 10.18794,-6.515803 12.97057,-1.051078 10.59213,-1.818333 3.22077,-10.951952 z m -9.28296,7.374107 4.82784,-1.601053 4.34374,1.785349 -5.29861,0.750475 z m -5.86437,0.176494 -4.10366,5.62377 -4.25306,-6.00821 4.4086,-5.053763 z m 4.15048,-19.209444 v 7.559184 l -7.23966,2.641419 v -7.347959 z m -9.57809,2.610176 v 7.098449 l -6.1773,-2.43948 -0.45946,-7.330825 z m -6.94867,6.868418 6.74558,2.664278 -4.58836,5.25935 -6.9938,-2.231461 z m 10.27068,2.85262 7.01002,-2.557521 3.98517,5.792698 -6.8451,2.270814 z m 17.76224,4.613958 -4.15504,-1.707814 -2.95539,-4.295882 3.4312,1.444538 z m 1.59788,-12.574935 -4.62325,5.753295 -5.37617,-2.263003 3.57431,-4.996047 z m -8.23091,-3.001095 -2.53467,3.543064 v -6.553968 l 2.94826,-3.37717 z m -2.14063,-7.018403 -2.74065,3.139391 -5.48055,2.159134 2.64751,-3.275131 z m -10.60524,-5.450469 3.41415,5.755 -3.77697,4.672688 -3.30386,-4.712065 z m -5.48688,7.192942 2.41633,3.446578 -5.60518,-2.256639 -2.90513,-3.699754 z m -5.29532,2.293957 0.38391,6.121387 -2.4227,-2.985241 -0.54939,-6.432599 z m -10.055057,5.885685 6.293237,-1.161588 3.57376,4.403881 -5.06826,1.714757 z m 5.417867,7.216288 2.79128,-0.944603 -3.57442,4.207007 -3.65719,1.272392 z m -4.2069,6.929234 4.12398,-1.434698 5.13579,1.638666 -3.34651,0.850575 z m 6.87724,3.222593 5.92071,-1.504711 v 5.766512 l -6.81065,3.626883 z m 8.25913,4.388264 v -2.952375 l 2.90793,4.107859 v 4.135779 z m 5.24639,1.175765 2.96586,-3.920531 v 2.981044 l -2.96586,5.236066 z m 5.30429,-1.070747 v -5.545539 l 6.65993,1.607707 0.0809,7.535521 z"
   id="path3884-9-0-6"
   style="fill:#f40803;stroke:none;stroke-width:0.70719;stroke-dasharray:none;stroke-opacity:1"
   sodipodi:nodetypes="ccccccccccccccccccccccccccccccccccccccccccccccccccccccccccccccccccccccccccccccccccccccccccccccccccccccccccccccc"
   inkscape:label="path3884" /></svg>
